<svg width="551.3350097656249px" height="162.79999999999998px" xmlns="http://www.w3.org/2000/svg" viewBox="-25.667504882812466 -6.3999999999999915 551.3350097656249 162.79999999999998" style="background: rgba(0, 0, 0, 0);" preserveAspectRatio="xMidYMid"><defs><filter id="editing-hole" x="-100%" y="-100%" width="300%" height="300%"><feFlood flood-color="#000000" result="black"></feFlood><feMorphology operator="dilate" radius="2" in="SourceGraphic" result="erode"></feMorphology><feGaussianBlur in="erode" stdDeviation="4" result="blur"></feGaussianBlur><feOffset in="blur" dx="2" dy="2" result="offset"></feOffset><feComposite operator="atop" in="offset" in2="black" result="merge"></feComposite><feComposite operator="in" in="merge" in2="SourceGraphic" result="inner-shadow"></feComposite></filter></defs><g filter="url(#editing-hole)"><g transform="translate(54.109768867492676, 105.19000053405762)"><path d="M34.83-59.02L45.80-59.02L26.91-28.67L47.41 0L36.28 0L17.22-28.03L17.22 0L7.45 0L7.45-59.02L17.22-59.02L17.22-29.47L34.83-59.02ZM90.81-59.02L101.78-59.02L84.24-24.02L84.24 0L74.47 0L74.47-23.22L57.82-59.02L68.79-59.02L78.96-32.59L79.84-32.59L90.81-59.02ZM146.62-11.85L153.27-6.01L153.27-6.01Q149.99-2.80 145.82-1.20L145.82-1.20L145.82-1.20Q141.66 0.40 136.85 0.40L136.85 0.40L136.85 0.40Q131.57 0.40 127.12-1.52L127.12-1.52L127.12-1.52Q122.68-3.44 119.36-7.21L119.36-7.21L119.36-7.21Q116.03-10.97 114.15-16.66L114.15-16.66L114.15-16.66Q112.27-22.34 112.27-29.79L112.27-29.79L112.27-29.79Q112.27-37.24 114.15-42.88L114.15-42.88L114.15-42.88Q116.03-48.53 119.36-52.29L119.36-52.29L119.36-52.29Q122.68-56.05 127.16-58.02L127.16-58.02L127.16-58.02Q131.65-59.98 136.85-59.98L136.85-59.98L136.85-59.98Q141.66-59.98 145.82-58.38L145.82-58.38L145.82-58.38Q149.99-56.78 153.27-53.57L153.27-53.57L146.62-47.65L146.62-47.65Q144.62-49.97 142.18-51.01L142.18-51.01L142.18-51.01Q139.74-52.05 137.09-52.05L137.09-52.05L137.09-52.05Q134.13-52.05 131.45-50.93L131.45-50.93L131.45-50.93Q128.77-49.81 126.64-47.13L126.64-47.13L126.64-47.13Q124.52-44.44 123.32-40.20L123.32-40.20L123.32-40.20Q122.12-35.96 122.04-29.79L122.04-29.79L122.04-29.79Q122.12-23.78 123.28-19.54L123.28-19.54L123.28-19.54Q124.44-15.29 126.48-12.61L126.48-12.61L126.48-12.61Q128.53-9.93 131.13-8.69L131.13-8.69L131.13-8.69Q133.73-7.45 136.61-7.45L136.61-7.45L136.61-7.45Q139.50-7.45 142.02-8.49L142.02-8.49L142.02-8.49Q144.54-9.53 146.62-11.85L146.62-11.85ZM176.57-21.30L176.57 0L166.96 0L166.96-59.02L183.94-59.02L183.94-59.02Q187.70-59.02 191.39-57.82L191.39-57.82L191.39-57.82Q195.07-56.62 197.99-54.21L197.99-54.21L197.99-54.21Q200.92-51.81 202.72-48.41L202.72-48.41L202.72-48.41Q204.52-45.00 204.52-40.76L204.52-40.76L204.52-40.76Q204.52-36.28 203.00-32.63L203.00-32.63L203.00-32.63Q201.48-28.99 198.75-26.51L198.75-26.51L198.75-26.51Q196.03-24.02 192.19-22.66L192.19-22.66L192.19-22.66Q188.34-21.30 183.70-21.30L183.70-21.30L176.57-21.30ZM183.78-51.73L176.57-51.73L176.57-28.35L185.38-28.35L185.38-28.35Q187.14-28.35 188.86-28.95L188.86-28.95L188.86-28.95Q190.59-29.55 192.03-30.91L192.03-30.91L192.03-30.91Q193.47-32.27 194.35-34.71L194.35-34.71L194.35-34.71Q195.23-37.16 195.23-40.76L195.23-40.76L195.23-40.76Q195.23-42.20 194.83-44.08L194.83-44.08L194.83-44.08Q194.43-45.96 193.19-47.69L193.19-47.69L193.19-47.69Q191.95-49.41 189.71-50.57L189.71-50.57L189.71-50.57Q187.46-51.73 183.78-51.73L183.78-51.73ZM235.11-45.40L235.11-45.40L235.11-45.40Q239.75-45.40 243.52-43.60L243.52-43.60L243.52-43.60Q247.28-41.80 249.92-38.68L249.92-38.68L249.92-38.68Q252.57-35.55 254.01-31.39L254.01-31.39L254.01-31.39Q255.45-27.23 255.45-22.42L255.45-22.42L255.45-22.42Q255.45-17.62 253.93-13.41L253.93-13.41L253.93-13.41Q252.41-9.21 249.64-6.13L249.64-6.13L249.64-6.13Q246.88-3.04 243.08-1.32L243.08-1.32L243.08-1.32Q239.27 0.40 234.63 0.40L234.63 0.40L234.63 0.40Q229.90 0.40 226.02-1.36L226.02-1.36L226.02-1.36Q222.14-3.12 219.45-6.25L219.45-6.25L219.45-6.25Q216.77-9.37 215.33-13.53L215.33-13.53L215.33-13.53Q213.89-17.70 213.89-22.58L213.89-22.58L213.89-22.58Q213.89-27.47 215.45-31.71L215.45-31.71L215.45-31.71Q217.01-35.96 219.77-38.96L219.77-38.96L219.77-38.96Q222.54-41.96 226.46-43.68L226.46-43.68L226.46-43.68Q230.38-45.40 235.11-45.40ZM234.47-7.21L234.47-7.21L234.47-7.21Q236.87-7.21 238.83-8.37L238.83-8.37L238.83-8.37Q240.79-9.53 242.20-11.57L242.20-11.57L242.20-11.57Q243.60-13.61 244.44-16.42L244.44-16.42L244.44-16.42Q245.28-19.22 245.28-22.42L245.28-22.42L245.28-22.42Q245.28-25.63 244.52-28.43L244.52-28.43L244.52-28.43Q243.76-31.23 242.44-33.35L242.44-33.35L242.44-33.35Q241.12-35.47 239.19-36.76L239.19-36.76L239.19-36.76Q237.27-38.04 234.87-38.04L234.87-38.04L234.87-38.04Q232.47-38.04 230.46-36.84L230.46-36.84L230.46-36.84Q228.46-35.63 227.06-33.59L227.06-33.59L227.06-33.59Q225.66-31.55 224.90-28.79L224.90-28.79L224.90-28.79Q224.14-26.03 224.14-22.82L224.14-22.82L224.14-22.82Q224.14-19.62 224.82-16.78L224.82-16.78L224.82-16.78Q225.50-13.93 226.86-11.85L226.86-11.85L226.86-11.85Q228.22-9.77 230.10-8.49L230.10-8.49L230.10-8.49Q231.99-7.21 234.47-7.21ZM267.14-3.60L267.14-3.60L271.22-10.09L271.22-10.09Q272.83-8.97 275.03-8.01L275.03-8.01L275.03-8.01Q277.23-7.05 280.59-7.05L280.59-7.05L280.59-7.05Q285.00-7.05 287.48-8.41L287.48-8.41L287.48-8.41Q289.96-9.77 289.96-12.41L289.96-12.41L289.96-12.41Q289.96-14.33 288.52-15.50L288.52-15.50L288.52-15.50Q287.08-16.66 284.88-17.50L284.88-17.50L284.88-17.50Q282.68-18.34 280.15-19.10L280.15-19.10L280.15-19.10Q277.63-19.86 275.47-20.98L275.47-20.98L275.47-20.98Q271.22-23.22 269.10-25.71L269.10-25.71L269.10-25.71Q266.98-28.19 266.98-32.27L266.98-32.27L266.98-32.27Q266.98-35.63 268.38-38.20L268.38-38.20L268.38-38.20Q269.78-40.76 272.03-42.48L272.03-42.48L272.03-42.48Q274.27-44.20 277.15-45.08L277.15-45.08L277.15-45.08Q280.03-45.96 283.00-45.96L283.00-45.96L283.00-45.96Q287-45.96 290.36-45.12L290.36-45.12L290.36-45.12Q293.73-44.28 296.85-42.28L296.85-42.28L293.73-35.63L293.73-35.63Q291.32-37.00 288.52-37.52L288.52-37.52L288.52-37.52Q285.72-38.04 283.00-38.04L283.00-38.04L283.00-38.04Q280.03-38.04 278.31-36.72L278.31-36.72L278.31-36.72Q276.59-35.39 276.59-32.59L276.59-32.59L276.59-32.59Q276.59-30.43 278.15-29.19L278.15-29.19L278.15-29.19Q279.71-27.95 282.20-26.99L282.20-26.99L282.20-26.99Q284.68-26.03 287.48-25.06L287.48-25.06L287.48-25.06Q290.28-24.10 292.73-22.62L292.73-22.62L292.73-22.62Q295.17-21.14 296.77-18.90L296.77-18.90L296.77-18.90Q298.37-16.66 298.37-13.13L298.37-13.13L298.37-13.13Q298.37-9.69 297.01-7.13L297.01-7.13L297.01-7.13Q295.65-4.56 293.33-2.88L293.33-2.88L293.33-2.88Q291.00-1.20 287.96-0.40L287.96-0.40L287.96-0.40Q284.92 0.40 281.47 0.40L281.47 0.40L281.47 0.40Q279.39 0.40 277.63 0.28L277.63 0.28L277.63 0.28Q275.87 0.16 274.19-0.24L274.19-0.24L274.19-0.24Q272.51-0.64 270.82-1.44L270.82-1.44L270.82-1.44Q269.14-2.24 267.14-3.60ZM323.84-38.60L323.84-13.69L323.84-13.69Q323.84-10.97 324.56-9.45L324.56-9.45L324.56-9.45Q325.28-7.93 326.60-7.13L326.60-7.13L326.60-7.13Q327.92-6.33 329.56-6.13L329.56-6.13L329.56-6.13Q331.20-5.93 333.04-5.93L333.04-5.93L333.04 0L333.04 0Q332.00 0.16 330.96 0.24L330.96 0.24L330.96 0.24Q330.08 0.32 328.84 0.36L328.84 0.36L328.84 0.36Q327.60 0.40 326.40 0.40L326.40 0.40L326.40 0.40Q325.20 0.40 323.96 0.32L323.96 0.32L323.96 0.32Q322.71 0.24 321.83 0.08L321.83 0.08L321.83 0.08Q319.11-0.40 317.59-2.28L317.59-2.28L317.59-2.28Q316.07-4.16 315.31-6.45L315.31-6.45L315.31-6.45Q314.55-8.73 314.35-10.89L314.35-10.89L314.35-10.89Q314.15-13.05 314.15-14.25L314.15-14.25L314.15-38.60L308.22-38.60L308.22-45.16L314.15-45.16L314.15-57.98L323.84-57.98L323.84-45.16L331.04-45.16L331.04-38.60L323.84-38.60ZM363.31-45.64L363.31-45.64L363.31-45.64Q368.76-45.64 372.92-43.44L372.92-43.44L372.92-43.44Q377.09-41.24 379.77-37.60L379.77-37.60L379.77-37.60Q382.45-33.95 383.61-29.19L383.61-29.19L383.61-29.19Q384.78-24.42 384.05-19.30L384.05-19.30L352.66-19.30L352.66-19.30Q352.66-16.74 353.63-14.57L353.63-14.57L353.63-14.57Q354.59-12.41 356.23-10.85L356.23-10.85L356.23-10.85Q357.87-9.29 360.15-8.41L360.15-8.41L360.15-8.41Q362.43-7.53 365.08-7.53L365.08-7.53L365.08-7.53Q365.96-7.53 367.28-7.73L367.28-7.73L367.28-7.73Q368.60-7.93 370.08-8.45L370.08-8.45L370.08-8.45Q371.56-8.97 373.04-9.77L373.04-9.77L373.04-9.77Q374.53-10.57 375.65-11.69L375.65-11.69L379.17-6.33L379.17-6.33Q376.53-3.04 373.00-1.36L373.00-1.36L373.00-1.36Q369.48 0.32 364.04 0.32L364.04 0.32L364.04 0.32Q359.63 0.32 355.79-1.48L355.79-1.48L355.79-1.48Q351.94-3.28 349.22-6.41L349.22-6.41L349.22-6.41Q346.50-9.53 344.90-13.69L344.90-13.69L344.90-13.69Q343.29-17.86 343.29-22.66L343.29-22.66L343.29-22.66Q343.29-27.39 344.90-31.59L344.90-31.59L344.90-31.59Q346.50-35.79 349.18-38.92L349.18-38.92L349.18-38.92Q351.86-42.04 355.55-43.84L355.55-43.84L355.55-43.84Q359.23-45.64 363.31-45.64ZM352.98-26.35L375.09-26.35L375.09-26.35Q375.09-28.51 374.29-30.59L374.29-30.59L374.29-30.59Q373.48-32.67 372.08-34.35L372.08-34.35L372.08-34.35Q370.68-36.04 368.68-37.04L368.68-37.04L368.68-37.04Q366.68-38.04 364.36-38.12L364.36-38.12L364.36-38.12Q361.87-38.12 359.79-37.16L359.79-37.16L359.79-37.16Q357.71-36.20 356.19-34.59L356.19-34.59L356.19-34.59Q354.67-32.99 353.83-30.79L353.83-30.79L353.83-30.79Q352.98-28.59 352.98-26.35L352.98-26.35Z" fill="#215dd8"></path></g></g><style>text {
  font-size: 64px;
  font-family: Arial Black;
  dominant-baseline: central;
  text-anchor: middle;
}</style></svg>